<svg width="784" height="382" viewBox="0 0 784 382" fill="none" xmlns="http://www.w3.org/2000/svg">
<path d="M50.484 381.852C44.3973 381.852 38.3106 380.778 32.2238 378.63C26.1371 376.482 20.5875 373.259 15.5749 368.963C10.9203 364.666 7.16085 359.117 4.29651 352.314C1.43217 345.511 0 337.276 0 327.609V54.2435C0 44.5763 1.43217 36.3413 4.29651 29.5385C7.16085 22.7357 10.9203 17.186 15.5749 12.8895C20.5875 8.59303 26.1371 5.37064 32.2238 3.22237C38.3106 1.07412 44.3973 0 50.484 0H60.1512C66.2379 0 72.3246 1.07412 78.4113 3.22237C84.4981 5.37064 89.8687 8.59303 94.5233 12.8895C99.5359 17.186 103.474 22.7357 106.339 29.5385C109.203 36.3413 110.635 44.5763 110.635 54.2435V154.674H68.7442V60.1511C68.7442 50.8421 67.6701 44.3973 65.5218 40.8169C63.3735 37.2364 60.3302 35.4462 56.3917 35.4462H54.2435C50.305 35.4462 47.2616 37.4154 45.1134 41.3539C42.9651 44.9344 41.891 51.3791 41.891 60.6882V321.164C41.891 330.473 42.9651 337.097 45.1134 341.036C47.2616 344.616 50.305 346.406 54.2435 346.406H56.3917C60.3302 346.406 63.3735 344.616 65.5218 341.036C67.6701 337.097 68.7442 330.473 68.7442 321.164V226.641H110.635V327.609C110.635 337.276 109.203 345.511 106.339 352.314C103.474 359.117 99.5359 364.666 94.5233 368.963C89.8687 373.259 84.4981 376.482 78.4113 378.63C72.3246 380.778 66.2379 381.852 60.1512 381.852H50.484Z" fill="#26396B"/>
<path d="M238.633 154.674C238.633 166.132 236.842 174.725 233.262 180.453C229.682 185.824 225.206 189.405 219.835 191.195C225.206 192.627 229.682 196.207 233.262 201.936C236.842 207.307 238.633 215.721 238.633 227.178V311.497C238.633 323.671 238.812 333.875 239.17 342.11C239.886 350.345 240.602 357.148 241.318 362.518C242.034 367.531 242.75 371.29 243.466 373.797C244.182 376.303 244.719 377.914 245.077 378.63H202.649C200.143 374.334 198.353 366.994 197.279 356.61C196.563 345.869 196.205 330.831 196.205 311.497V230.937C196.205 214.826 192.624 206.77 185.463 206.77H169.351V378.63H127.46V3.22237H188.149C202.112 3.22237 213.928 7.87693 223.595 17.186C233.62 26.4952 238.633 39.7427 238.633 56.9288V154.674ZM185.463 175.62C192.624 175.62 196.205 167.743 196.205 151.989V63.3736C196.205 46.9036 192.087 38.6686 183.852 38.6686H169.351V175.62H185.463Z" fill="#26396B"/>
<path d="M300.47 3.22237V378.63H258.579V3.22237H300.47Z" fill="#26396B"/>
<path d="M367.792 381.852C361.706 381.852 355.619 380.778 349.532 378.63C343.445 376.482 337.896 373.259 332.883 368.963C328.229 364.666 324.469 359.117 321.605 352.314C318.74 345.511 317.308 337.276 317.308 327.609V54.2435C317.308 44.5763 318.74 36.3413 321.605 29.5385C324.469 22.7357 328.229 17.186 332.883 12.8895C337.896 8.59303 343.445 5.37064 349.532 3.22237C355.619 1.07412 361.706 0 367.792 0H377.459C383.546 0 389.633 1.07412 395.72 3.22237C401.806 5.37064 407.177 8.59303 411.831 12.8895C416.844 17.186 420.783 22.7357 423.647 29.5385C426.511 36.3413 427.943 44.5763 427.943 54.2435V154.674H386.052V60.1511C386.052 50.8421 384.978 44.3973 382.83 40.8169C380.682 37.2364 377.638 35.4462 373.7 35.4462H371.552C367.613 35.4462 364.57 37.4154 362.422 41.3539C360.273 44.9344 359.199 51.3791 359.199 60.6882V321.164C359.199 330.473 360.273 337.097 362.422 341.036C364.57 344.616 367.613 346.406 371.552 346.406H373.7C377.638 346.406 380.682 344.616 382.83 341.036C384.978 337.097 386.052 330.473 386.052 321.164V226.641H427.943V327.609C427.943 337.276 426.511 345.511 423.647 352.314C420.783 359.117 416.844 364.666 411.831 368.963C407.177 373.259 401.806 376.482 395.72 378.63C389.633 380.778 383.546 381.852 377.459 381.852H367.792Z" fill="#26396B"/>
<path d="M516.735 184.213L560.774 378.63H522.106L487.734 240.605H486.66V378.63H444.769V3.22237H486.66V145.007H487.734L523.18 3.22237H561.849L516.735 184.213Z" fill="#26396B"/>
<path d="M613.583 38.6686V175.083H650.103V206.77H613.583V343.184H663.53V378.63H571.692V3.22237H660.307V38.6686H613.583Z" fill="#26396B"/>
<path d="M784 38.6686H748.017V378.63H706.126V38.6686H669.605V3.22237H784V38.6686Z" fill="#26396B"/>
</svg>
