<svg width="288" height="404" viewBox="0 0 288 404" fill="none" xmlns="http://www.w3.org/2000/svg">
<path d="M257.821 56.7337C262.597 51.7135 267.148 46.4939 271.541 41.1578C268.364 50.2424 265.52 59.46 263.403 68.8437C270.706 57.2906 276.698 44.9645 282.332 32.5471L285.061 26.3217L287.702 20.0631C288.515 18.1265 287.607 15.9156 285.674 15.1094C284.017 14.4113 282.133 14.9931 281.129 16.3894C278.55 19.9717 276.003 23.5706 273.525 27.2443C267.32 36.4036 261.378 45.7625 256.126 55.5202C255.227 57.2407 253.885 59.7426 253.074 61.4963C254.467 60.1997 256.45 58.155 257.807 56.742L257.821 56.7337ZM232.453 4.47891C233.844 0.339752 239.935 1.37875 239.833 5.77557C239.179 21.3265 237.953 36.894 234.456 52.1125C233.111 43.8591 232.514 35.5641 232.26 27.236C230.538 31.5164 228.729 35.7471 226.796 39.8862C225.107 43.4768 223.355 47.0341 221.337 50.525C221.78 46.5271 222.482 42.6207 223.23 38.7226C225.535 27.2111 228.805 15.6496 232.453 4.47891ZM177.764 4.59528C176.873 0.215088 182.876 -1.87106 184.87 2.14343C192.677 18.5006 200.062 35.2484 205.159 52.6694C199.481 44.7485 194.437 36.387 189.706 27.8593C190.822 35.1236 191.714 42.4046 192.268 49.6855C192.402 51.6637 192.613 54.5478 192.644 56.4927C191.869 54.6974 190.901 51.9712 190.222 50.1094C184.962 35.2899 181.08 19.9385 177.759 4.55377L177.764 4.59528ZM121.913 16.8217L129.869 22.4485C148.286 35.7137 166.615 49.4528 183.548 64.5799C171.421 58.0885 159.675 50.9323 148.107 43.5017C155.172 51.032 162.072 58.7119 168.721 66.558C170.534 68.7107 173.184 71.894 174.871 74.0634C172.642 72.4094 169.44 69.7912 167.253 68.0375C149.808 53.8164 133.199 38.3652 117.099 22.6148C113.832 19.3151 118.094 14.2118 121.918 16.805L121.913 16.8217ZM143.449 80.6711C151.198 84.0871 158.943 87.4616 166.57 91.1768C158.347 89.0574 150.265 86.5971 142.156 84.1619C122.089 78.0279 101.848 71.1127 82.0899 64.0229L70.1839 59.6677C68.4202 59.0277 67.3712 57.1577 67.7984 55.271C68.2591 53.2263 70.2877 51.9546 72.3405 52.4283C80.4635 54.2735 88.5909 56.1602 96.6899 58.1218C121.01 64.0811 145.243 70.398 169.076 78.1194C151.455 75.8088 133.96 72.7668 116.523 69.3923C125.589 73.0494 134.598 76.7978 143.454 80.6461L143.449 80.6711ZM86.9319 107.002C100.637 107.218 114.3 107.526 127.864 107.958C140.194 108.407 152.537 108.839 164.874 109.604C152.543 110.501 140.22 111.075 127.883 111.657C97.2801 112.97 66.0596 113.71 35.4036 114.067L16.8963 114.216C14.9607 114.233 13.2728 112.754 13.0926 110.767C12.9085 108.689 14.44 106.844 16.5208 106.653L35.23 104.949C78.8616 101.167 122.838 97.826 166.582 96.4214C140.201 100.511 113.57 103.943 86.9227 106.985L86.9319 107.002ZM80.8952 149.183C96.88 144.936 112.846 140.789 128.698 136.832C142.491 133.433 156.274 130.017 170.157 126.933C156.735 131.638 143.223 136.009 129.721 140.406C96.1652 151.178 61.7537 161.584 27.8709 171.425L7.41321 177.31C5.52472 177.85 3.50838 176.852 2.82138 174.982C2.09336 173.021 3.10291 170.835 5.06229 170.128C58.0345 150.513 112.38 130.981 166.26 114.092C138.334 126.268 109.576 137.913 80.9183 149.183H80.8952ZM171.338 132.884C143.505 154.27 114.979 175.39 86.227 196.202C102.19 186.768 118.25 177.384 133.582 168.549C148.387 160.096 163.173 151.61 178.139 143.432C157.783 157.32 134.846 172.181 114.053 185.613C86.387 203.408 55.5992 222.732 27.5368 240.102L5.76075 253.499C4.05881 254.538 1.82023 254.088 0.676771 252.436C-0.512677 250.715 -0.0959115 248.359 1.6257 247.166C12.0587 239.865 33.1524 225.217 43.6312 217.986C85.457 189.262 128.54 160.071 171.361 132.893L171.338 132.884ZM19.2226 329.523C72.3615 268.766 127.133 206.899 182.364 148.103C154.851 182.164 126.423 216.191 97.7195 249.929C114.714 232.906 131.941 215.809 148.343 199.718C162.888 185.53 177.425 171.325 192.215 157.354C172.599 179.205 150.361 203.034 130.195 224.569C103.344 253.159 73.382 284.456 46.0319 312.775L24.7964 334.629C21.22 338.063 16.1595 333.219 19.2274 329.499L19.2226 329.523ZM73.2167 398.48C83.5016 378.619 110.052 327.375 120.202 308.224C146.289 258.686 173.455 207.796 200.776 158.949C181.672 199.41 161.439 240.714 140.863 281.861C152.042 262.874 163.586 243.467 174.316 225.533C185.797 206.491 197.269 187.433 209.023 168.524C198.706 188.248 188.099 207.805 177.514 227.359C156.912 265.199 133.949 306.494 112.801 344.052L79.8646 402.079C78.8581 403.843 76.6391 404.521 74.8313 403.567C72.9772 402.603 72.2562 400.313 73.2215 398.457L73.2167 398.48Z" fill="url(#paint0_radial_264_3893)"/>
<defs>
<radialGradient id="paint0_radial_264_3893" cx="0" cy="0" r="1" gradientUnits="userSpaceOnUse" gradientTransform="translate(156.263 181.715) rotate(154.007) scale(178.185 178.088)">
<stop offset="0.3" stop-color="#FDEE00"/>
<stop offset="0.36" stop-color="#F2EB06"/>
<stop offset="0.47" stop-color="#D5E416"/>
<stop offset="0.61" stop-color="#A6D831"/>
<stop offset="0.77" stop-color="#66C956"/>
<stop offset="0.96" stop-color="#14B585"/>
<stop offset="1" stop-color="#00B091"/>
</radialGradient>
</defs>
</svg>
