<svg width="293" height="259" viewBox="0 0 293 259" fill="none" xmlns="http://www.w3.org/2000/svg">
<path d="M236.814 229.386C239.886 233.851 243.147 238.175 246.523 242.399C240.08 238.498 233.481 234.83 226.638 231.691C234.304 239.147 242.774 245.725 251.371 252.045L255.697 255.14L260.063 258.173C261.415 259.108 263.254 258.773 264.185 257.425C264.987 256.271 264.846 254.736 263.939 253.743C261.613 251.19 259.269 248.66 256.857 246.17C250.846 239.942 244.64 233.883 238.018 228.286C236.845 227.32 235.147 225.889 233.935 224.984C234.702 226.26 235.947 228.107 236.81 229.373L236.814 229.386ZM280.933 218.454C283.878 220.188 282.097 224.677 278.747 223.887C266.944 220.867 255.221 217.408 244.132 212.269C250.67 212.578 257.119 213.465 263.537 214.62C260.538 212.61 257.591 210.542 254.734 208.393C252.257 206.52 249.817 204.604 247.47 202.496C250.46 203.482 253.338 204.652 256.202 205.855C264.644 209.482 272.969 213.855 280.933 218.454ZM289.69 176.62C293.188 176.648 293.815 181.576 290.418 182.45C276.629 185.77 262.609 188.704 248.444 189.778C255.428 186.72 262.647 184.218 269.943 181.982C264.2 181.659 258.48 181.162 252.814 180.405C251.278 180.187 249.035 179.881 247.541 179.59C249.041 179.288 251.285 178.99 252.821 178.773C265.02 177.151 277.404 176.67 289.722 176.623L289.69 176.62ZM289.361 131.936L283.765 137.107C270.628 149.04 257.142 160.829 242.819 171.325C249.751 163.104 257.131 155.283 264.692 147.642C257.783 151.823 250.786 155.856 243.702 159.668C241.76 160.706 238.894 162.216 236.96 163.155C238.587 161.718 241.11 159.694 242.807 158.306C256.518 147.272 271.037 137.075 285.703 127.316C288.758 125.353 291.977 129.438 289.373 131.942L289.361 131.936ZM236.982 138.059C233.113 143.431 229.276 148.806 225.197 154.035C228.15 148.091 231.341 142.31 234.518 136.505C242.461 122.155 251.031 107.799 259.655 93.8405L264.916 85.4427C265.692 84.1979 267.293 83.6988 268.669 84.331C270.16 85.0145 270.806 86.7716 270.111 88.2644C267.385 94.1763 264.625 100.085 261.813 105.96C253.316 123.589 244.559 141.095 234.791 158.067C239.411 144.968 244.57 132.084 249.974 119.299C245.707 125.638 241.38 131.919 237 138.067L236.982 138.059ZM225.959 90.5803C223.577 101.024 221.132 111.421 218.607 121.722C216.269 131.077 213.941 140.445 211.361 149.753C212.667 140.18 214.221 130.665 215.771 121.137C219.716 97.5258 224.199 73.5348 228.883 50.0373L231.762 35.8624C232.063 34.3797 233.469 33.3288 235.019 33.5128C236.64 33.7087 237.805 35.1785 237.615 36.8005L235.894 51.3816C231.733 85.355 227.179 119.521 221.179 153.195C222.314 132.362 223.993 111.443 225.974 90.576L225.959 90.5803ZM194.634 79.1315C195.301 92.0416 195.895 104.921 196.36 117.683C196.733 128.779 197.119 139.871 197.235 150.986C195.804 139.961 194.641 128.922 193.458 117.885C190.636 90.4839 188.233 62.487 186.178 34.986L184.98 18.3908C184.872 16.8594 185.962 15.4793 187.505 15.2569C189.125 15.018 190.636 16.144 190.86 17.7566C197.313 61.4368 203.481 106.154 207.699 150.086C202.892 126.761 198.626 102.887 194.63 79.1492L194.634 79.1315ZM192.487 150.924C180.612 126.179 169.052 100.947 157.765 75.5915C162.407 89.3251 166.996 103.125 171.282 116.279C175.36 128.968 179.467 141.648 183.31 154.416C175.966 136.602 168.296 116.657 161.373 98.5829C152.221 74.5464 142.402 47.8757 133.64 23.6053L126.902 4.78503C126.382 3.31542 127.089 1.67677 128.539 1.07002C130.049 0.439415 131.786 1.13979 132.421 2.64935C136.325 11.8091 144.13 30.3102 147.972 39.4937C163.204 76.127 178.59 113.797 192.477 150.941L192.487 150.924ZM66.507 2.76258C104.439 53.2349 142.957 105.135 179.049 156.89C157.416 130.336 135.956 103.088 114.763 75.6752C125.05 91.4266 135.356 107.368 145.026 122.516C153.538 135.936 162.065 149.351 170.372 162.923C156.811 144.385 142.16 123.521 128.93 104.614C111.379 79.4526 92.2582 51.4734 74.996 25.974L61.6948 6.19706C59.6439 2.90634 64.1719 -0.178208 66.524 2.77003L66.507 2.76258ZM4.96668 32.8757C18.5127 43.957 53.4606 72.5588 66.4843 83.4216C100.201 111.393 134.778 140.408 167.765 169.211C139.871 148.049 111.513 125.888 83.3314 103.49C96.0633 115.113 109.058 127.083 121.055 138.193C133.781 150.056 146.52 161.915 159.099 173.965C145.664 162.882 132.403 151.603 119.14 140.343C93.4947 118.46 65.5859 94.2132 40.2447 71.9592L1.1354 37.3757C-0.0524403 36.3205 -0.212882 34.5139 0.810209 33.2862C1.84843 32.0247 3.71858 31.8444 4.98373 32.8832L4.96668 32.8757Z" fill="url(#paint0_radial_264_3895)"/>
<defs>
<radialGradient id="paint0_radial_264_3895" cx="0" cy="0" r="1" gradientUnits="userSpaceOnUse" gradientTransform="translate(68.9386 -4.84167) rotate(48.9646) scale(271.514 334.255)">
<stop offset="0.3" stop-color="#DDA835"/>
<stop offset="0.47" stop-color="#DDA835"/>
<stop offset="0.595" stop-color="#A42532"/>
<stop offset="0.855" stop-color="#A42532"/>
<stop offset="1" stop-color="#A42532"/>
</radialGradient>
</defs>
</svg>
