<svg width="260" height="423" viewBox="0 0 260 423" fill="none" xmlns="http://www.w3.org/2000/svg">
<path d="M125.755 50.1206C126.048 43.1975 126.641 36.2983 127.427 29.4311C123.1 38.0275 118.446 46.4769 113.167 54.5185C116.403 41.2393 121.107 28.3666 126.124 15.6872L128.707 9.39955L131.374 3.15207C132.202 1.2221 134.423 0.338934 136.346 1.16968C137.999 1.87662 138.889 3.63582 138.582 5.32785C137.798 9.67186 136.978 14.0041 136.057 18.3388C133.779 29.1645 131.175 39.94 127.805 50.497C127.192 52.339 126.325 55.042 125.627 56.8438C125.592 54.941 125.685 52.0939 125.759 50.1365L125.755 50.1206ZM180.965 32.0667C182.976 28.191 177.997 24.5313 174.905 27.6592C164.174 38.9329 153.828 50.6291 145.31 63.7166C152.181 58.9504 158.563 53.6179 164.729 48.0145C162.847 52.2266 161.06 56.4669 159.426 60.7332C158.017 64.4422 156.675 68.1741 155.566 72.0503C158.134 68.9547 160.456 65.7357 162.74 62.4897C169.42 52.8349 175.464 42.4509 180.965 32.0667ZM218.873 71.4853C222.643 69.0838 219.973 63.3164 215.7 64.6708C198.512 70.4188 181.334 76.741 165.262 85.1772C174.904 83.7587 184.423 81.5778 193.843 79.057C187.843 83.3008 181.986 87.7169 176.364 92.3767C174.848 93.6547 172.627 95.5066 171.206 96.8351C173.036 96.1457 175.67 94.9481 177.48 94.1426C191.794 87.6312 205.533 79.759 218.907 71.46L218.873 71.4853ZM248.878 120.153L239.304 118.339C216.968 114.307 194.352 110.667 171.709 108.996C184.802 113.21 198.11 116.687 211.49 119.846C201.166 119.996 190.848 120.367 180.586 121.036C177.778 121.227 173.647 121.532 170.915 121.826C173.653 122.28 177.761 122.765 180.541 123.119C202.889 125.788 225.541 127.001 248.056 127.64C252.699 127.698 253.409 121.087 248.887 120.138L248.878 120.153ZM187.99 149.018C180.15 145.817 172.342 142.59 164.372 139.686C171.608 144.128 178.993 148.232 186.377 152.373C204.73 162.546 223.766 172.302 242.591 181.588L253.995 187.127C255.681 187.951 257.755 187.406 258.815 185.788C259.966 184.036 259.471 181.694 257.704 180.546C250.734 175.985 243.731 171.45 236.693 166.987C215.512 153.634 194.133 140.591 172.023 128.812C185.926 139.882 200.268 150.352 214.808 160.55C205.88 156.57 196.925 152.693 188.005 148.997L187.99 149.018ZM208.313 207.963C198.636 198.255 188.924 188.641 179.19 179.184C170.301 170.627 161.415 162.049 152.296 153.707C160.216 163.199 168.364 172.462 176.516 181.74C196.831 204.665 217.988 227.636 239.027 249.935L251.777 263.352C253.109 264.755 255.346 264.942 256.9 263.691C258.523 262.38 258.786 259.997 257.478 258.367L245.706 243.726C218.116 209.715 189.969 175.761 160.591 143.32C175.976 165.137 192.007 186.677 208.331 207.958L208.313 207.963ZM182.165 241.608C174.116 227.16 166.008 212.794 157.841 198.643C150.704 186.36 143.586 174.073 136.16 161.945C142.1 174.868 148.342 187.624 154.56 200.391C170.122 232.01 186.543 263.992 203.002 295.2L212.981 314.003C213.905 315.737 216.023 316.494 217.845 315.69C219.762 314.851 220.633 312.606 219.78 310.706C197.09 258.976 173.386 206.316 148.104 155.827C158.745 184.373 170.348 213.148 182.149 241.592L182.165 241.608ZM131.059 165.23C135.011 200.106 139.637 235.297 144.641 270.437C140.337 252.401 135.93 234.33 131.634 217.164C127.429 200.642 123.261 184.111 118.748 167.665C122.898 191.955 128.143 218.778 132.926 243.065C139.346 275.328 146.834 310.898 153.835 343.15L159.326 368.121C159.761 370.067 161.64 371.364 163.622 371.039C165.687 370.699 167.092 368.762 166.754 366.695C164.758 354.119 160.64 328.77 158.562 316.21C150.168 266.169 141.235 214.901 131.037 165.219L131.059 165.23ZM95.2903 411.251C102.077 330.82 108.529 248.444 112.452 167.87C107.065 211.323 102.338 255.41 98.011 299.494C98.4498 275.444 98.7802 251.176 98.9599 228.199C99.0607 207.88 99.1797 187.556 98.9549 167.211C96.8641 196.501 95.173 229.051 93.6914 258.517C91.7796 297.692 90.0821 340.986 88.7127 380.332L87.7449 410.789C87.7597 415.747 94.7595 416.022 95.3037 411.231L95.2903 411.251ZM8.17929 420.317C15.3207 399.122 33.7362 344.425 40.4604 323.82C57.9709 270.641 75.7039 215.748 91.8596 162.162C76.0276 204.011 60.3738 247.259 45.0705 290.644C50.962 269.413 56.9016 247.627 62.347 227.45C68.068 205.964 73.8074 184.472 79.2435 162.882C72.2231 184.004 65.5247 205.22 58.8125 226.418C45.906 267.525 32.1548 312.729 19.8304 354.033L0.972273 418.035C0.402819 419.985 1.45657 422.052 3.39877 422.689C5.38033 423.353 7.52827 422.281 8.19269 420.297L8.17929 420.317Z" fill="url(#paint0_radial_264_3897)"/>
<defs>
<radialGradient id="paint0_radial_264_3897" cx="0" cy="0" r="1" gradientUnits="userSpaceOnUse" gradientTransform="translate(106.408 209.996) rotate(71.9896) scale(178.185 178.088)">
<stop offset="0.3" stop-color="#FDEE00"/>
<stop offset="0.36" stop-color="#F2EB06"/>
<stop offset="0.47" stop-color="#D5E416"/>
<stop offset="0.61" stop-color="#A6D831"/>
<stop offset="0.77" stop-color="#66C956"/>
<stop offset="0.96" stop-color="#14B585"/>
<stop offset="1" stop-color="#00B091"/>
</radialGradient>
</defs>
</svg>
